<?xml version="1.0" standalone="no"?><svg xmlns="http://www.w3.org/2000/svg" xmlns:xlink="http://www.w3.org/1999/xlink" style="isolation:isolate" viewBox="61.91346234393677 0.0018764618509976572 876.173075312126 999.9962470762995" width="876.173075312126" height="999.9962470762995"><path d="M 243.2036136012348 141.83118620904835 L 78.33685502373514 236.8325631655252 C 68.76838433657032 242.3462149076328 61.00000000000091 255.77537215683523 61 266.80267564107277 L 61 499.500000000002 L 61 732.1973243589315 C 61.000000000001364 743.2246278431642 68.76838433657079 756.6537850923665 78.33685502373515 762.1674368344792 L 280.2499999999899 878.5160990139641 L 482.16314497628537 994.8647611934086 C 491.7316156634267 1000.3784129355304 507.2683843365655 1000.3784129355304 516.8368550237151 994.8647611934086 L 718.7500000000103 878.516099013964 L 920.6631449762646 762.1674368344791 C 930.2316156634215 756.6537850923664 937.999999999991 743.2246278431643 938 732.1973243589315 L 938 499.500000000002 L 938 266.80267564107277 C 937.9999999999905 255.7753721568346 930.231615663421 242.34621490763206 920.6631449762647 236.83256316552504 L 718.7500000000103 120.48390098604025 L 516.8368550237152 4.135238806595826 C 507.268384336565 -1.3784129355318555 491.7316156634262 -1.3784129355319124 482.1631449762853 4.135238806595882 L 319.1059634782336 98.09388091621572 L 319.10596347823355 250.39238520701207 L 469.7429347725848 250.39238520701207 Q 481.42021936903143 250.3923852070126 489.01045435674587 259.71610643204207 Q 496.60068934443143 269.0398276570723 496.60068934444564 281.8599443414881 Q 496.60068934443143 294.68006102590454 489.01045435674575 304.00378225093374 Q 481.4202193690314 313.32750347596425 469.7429347725848 313.3275034759637 L 319.10596347823355 313.3275034759637 L 319.10596347823355 630.3340251269801 Q 319.10596347821894 687.4418176302892 343.0443969009794 710.1683881162988 Q 366.9828303237102 732.8949586023098 427.7047102253244 732.8949586023093 L 460.4011070954159 732.8949586023093 Q 475.581577070801 732.8949586023097 485.5072689778076 742.8014124039034 Q 495.4329608847851 752.7078662054985 495.4329608847996 766.6934480430426 Q 495.4329608847851 780.6790298805876 485.5072689778076 791.1682162587457 Q 475.581577070801 801.6574026369049 460.40110709541585 801.6574026369044 L 427.70471022532433 801.6574026369044 Q 243.20361360122016 801.6574026369049 243.2036136012347 630.3340251269801 L 243.2036136012348 141.83118620904835 Z" style="stroke:none;fill:#34495E;stroke-miterlimit:10;fill-rule:evenodd;"/></svg>
